<?xml version="1.0" encoding="UTF-8" standalone="no"?>
<!-- Created with Inkscape (http://www.inkscape.org/) -->

<svg
   version="1.1"
   id="svg2"
   width="512"
   height="512"
   viewBox="0 0 512.00001 512.00001"
   sodipodi:docname="fonts.svg"
   xml:space="preserve"
   inkscape:version="1.2.2 (1:1.2.2+202212051552+b0a8486541)"
   xmlns:inkscape="http://www.inkscape.org/namespaces/inkscape"
   xmlns:sodipodi="http://sodipodi.sourceforge.net/DTD/sodipodi-0.dtd"
   xmlns="http://www.w3.org/2000/svg"
   xmlns:svg="http://www.w3.org/2000/svg"><defs
     id="defs6" /><sodipodi:namedview
     id="namedview4"
     pagecolor="#ffffff"
     bordercolor="#000000"
     borderopacity="0.25"
     inkscape:showpageshadow="2"
     inkscape:pageopacity="0.0"
     inkscape:pagecheckerboard="0"
     inkscape:deskcolor="#d1d1d1"
     showgrid="false"
     inkscape:zoom="0.6076389"
     inkscape:cx="314.33142"
     inkscape:cy="367.81714"
     inkscape:window-width="1309"
     inkscape:window-height="704"
     inkscape:window-x="0"
     inkscape:window-y="0"
     inkscape:window-maximized="1"
     inkscape:current-layer="g8" /><g
     inkscape:groupmode="layer"
     inkscape:label="Image"
     id="g8"
     transform="translate(513.84427,-70.674917)"><path
       style="fill:#ffffff;fill-opacity:1;stroke-width:0.613308"
       d="M -257.84427,70.674917 -479.5465,198.67491 V 454.6749 L -257.84427,582.67491 -36.14204,454.6749 V 198.67491 Z"
       id="path7019" /><path
       style="fill:#000000;fill-opacity:1;stroke-width:0.582164"
       d="M -257.84426,83.674919 -468.28818,205.17491 v 243 l 210.44392,121.50001 210.44389,-121.50001 v -243 z"
       id="path9969" /><g
       id="g366"
       transform="translate(-15.171215,-57.1219)"><path
         id="path1144"
         style="fill:#ff1744;fill-opacity:1;stroke-width:0.464704"
         d="m -115.39208,457.28285 -2.52257,1.45632 v 0.43055 l -165.08773,95.31388 40.32931,23.2841 127.28099,-73.48602 z" /><path
         style="fill:#00c853;fill-opacity:1;stroke-width:0.464704"
         d="m -242.67307,189.82594 -127.28099,73.48603 v 46.99968 c 56.39088,-33.08583 117.47632,-68.43037 167.51161,-97.25898 z"
         id="path1146"
         sodipodi:nodetypes="ccccc" /><path
         id="path1148"
         style="fill:#ffd600;fill-opacity:1;stroke-width:0.464704"
         d="m -369.95406,263.31197 -40.7025,23.49941 v 147.04719 c 23.05588,13.31136 46.10735,26.59236 69.16015,39.89878 v -0.0448 l -28.45765,-16.42974 V 310.31165 Z" /><path
         style="fill:#2196f3;fill-opacity:1;stroke-width:0.464704"
         d="m -202.44245,213.05267 c -50.03521,28.82856 -111.12086,64.17323 -167.51161,97.25898 l 127.28099,-73.48603 69.04535,39.86333 0.11481,-0.0659 98.823322,57.05542 v -46.86713 z"
         id="path1150" /><path
         style="fill:#aa00ff;fill-opacity:1;stroke-width:0.464704"
         d="m -173.5129,276.62309 -0.11481,0.0659 58.23565,33.6227 v 146.97121 46.99883 l 40.7025,-23.49942 v -147.1038 z"
         id="path1152" /><path
         style="fill:#ff6d00;fill-opacity:1;stroke-width:0.464704"
         d="m -410.65656,433.85857 v 46.9237 l 127.65411,73.7013 165.0878,-95.31385 v -0.43055 l -124.75842,72.02971 c -55.99625,-32.23811 -111.98288,-64.57824 -167.98349,-96.91031 z"
         id="path1154" /></g><g
       id="g327"
       transform="matrix(13.526132,0,0,13.526132,-366.05333,218.46586)"><path
         fill="none"
         d="M 0,0 H 16 V 16 H 0 Z"
         id="path297" /><path
         fill="#f29900"
         d="M 13.5,2 H 8 L 1,13 h 5.5 z"
         id="path299" /><path
         fill="#1a73e8"
         d="m 8,2 h 5 V 13 H 8 Z"
         id="path301" /><circle
         fill="#ea4335"
         cx="3.25"
         cy="4.25"
         r="2.25"
         id="circle303" /><path
         fill="#0d652d"
         d="M 13.33,10 13,13 c -1.66,0 -3,-1.34 -3,-3 0,-1.66 1.34,-3 3,-3 z"
         id="path305" /><path
         fill="#174ea6"
         d="M 10.5,4.5 A 2.5,2.5 0 0 1 13,2 L 13.45,4.5 13,7 A 2.5,2.5 0 0 1 10.5,4.5 Z"
         id="path307" /><path
         fill="#1a73e8"
         d="m 13,2 a 2.5,2.5 0 0 1 0,5"
         id="path309" /><path
         fill="#34a853"
         d="m 13,7 c 1.66,0 3,1.34 3,3 0,1.66 -1.34,3 -3,3"
         id="path311" /></g></g></svg>
