<?xml version="1.0" encoding="UTF-8" standalone="no"?>
<!-- Created with Inkscape (http://www.inkscape.org/) -->

<svg
   version="1.1"
   id="svg2"
   width="512"
   height="512"
   viewBox="0 0 512.00001 512.00001"
   sodipodi:docname="footprint.svg"
   xml:space="preserve"
   inkscape:version="1.2.2 (1:1.2.2+202212051552+b0a8486541)"
   xmlns:inkscape="http://www.inkscape.org/namespaces/inkscape"
   xmlns:sodipodi="http://sodipodi.sourceforge.net/DTD/sodipodi-0.dtd"
   xmlns="http://www.w3.org/2000/svg"
   xmlns:svg="http://www.w3.org/2000/svg"><defs
     id="defs6" /><sodipodi:namedview
     id="namedview4"
     pagecolor="#ffffff"
     bordercolor="#000000"
     borderopacity="0.25"
     inkscape:showpageshadow="2"
     inkscape:pageopacity="0.0"
     inkscape:pagecheckerboard="0"
     inkscape:deskcolor="#d1d1d1"
     showgrid="false"
     inkscape:zoom="0.6076389"
     inkscape:cx="360.41142"
     inkscape:cy="366.17142"
     inkscape:window-width="1309"
     inkscape:window-height="704"
     inkscape:window-x="0"
     inkscape:window-y="0"
     inkscape:window-maximized="1"
     inkscape:current-layer="g8" /><g
     inkscape:groupmode="layer"
     inkscape:label="Image"
     id="g8"
     transform="translate(513.84427,-70.674917)"><g
       id="g2393"
       transform="translate(34.29777)"><path
         style="fill:#ffffff;fill-opacity:1;stroke-width:0.613308"
         d="M -292.14204,70.674917 -513.84427,198.67491 V 454.6749 L -292.14204,582.67491 -70.43981,454.6749 V 198.67491 Z"
         id="path7019" /><path
         style="fill:#000000;fill-opacity:1;stroke-width:0.582164"
         d="M -292.14203,83.674919 -502.58595,205.17491 v 243 l 210.44392,121.50001 210.44389,-121.50001 v -243 z"
         id="path9969" /><g
         id="g366"
         transform="translate(-49.468985,-57.1219)"><path
           id="path1144"
           style="fill:#ff1744;fill-opacity:1;stroke-width:0.464704"
           d="m -115.39208,457.28285 -2.52257,1.45632 v 0.43055 l -165.08773,95.31388 40.32931,23.2841 127.28099,-73.48602 z" /><path
           style="fill:#00c853;fill-opacity:1;stroke-width:0.464704"
           d="m -242.67307,189.82594 -127.28099,73.48603 v 46.99968 c 56.39088,-33.08583 117.47632,-68.43037 167.51161,-97.25898 z"
           id="path1146"
           sodipodi:nodetypes="ccccc" /><path
           id="path1148"
           style="fill:#ffd600;fill-opacity:1;stroke-width:0.464704"
           d="m -369.95406,263.31197 -40.7025,23.49941 v 147.04719 c 23.05588,13.31136 46.10735,26.59236 69.16015,39.89878 v -0.0448 l -28.45765,-16.42974 V 310.31165 Z" /><path
           style="fill:#2196f3;fill-opacity:1;stroke-width:0.464704"
           d="m -202.44245,213.05267 c -50.03521,28.82856 -111.12086,64.17323 -167.51161,97.25898 l 127.28099,-73.48603 69.04535,39.86333 0.11481,-0.0659 98.823322,57.05542 v -46.86713 z"
           id="path1150" /><path
           style="fill:#aa00ff;fill-opacity:1;stroke-width:0.464704"
           d="m -173.5129,276.62309 -0.11481,0.0659 58.23565,33.6227 v 146.97121 46.99883 l 40.7025,-23.49942 v -147.1038 z"
           id="path1152" /><path
           style="fill:#ff6d00;fill-opacity:1;stroke-width:0.464704"
           d="m -410.65656,433.85857 v 46.9237 l 127.65411,73.7013 165.0878,-95.31385 v -0.43055 l -124.75842,72.02971 c -55.99625,-32.23811 -111.98288,-64.57824 -167.98349,-96.91031 z"
           id="path1154" /></g><g
         id="g1644"
         transform="translate(-32.443225,-20.129563)"><path
           style="fill:#ffffff;fill-opacity:1;stroke-width:0.794488"
           d="m -243.51339,231.07733 c -3.41455,-0.74019 -6.33725,-3.47772 -8.24623,-7.72377 -1.79955,-4.00268 -1.48012,-5.49989 2.27358,-10.65567 5.24308,-7.20151 14.65814,-11.29484 26.08538,-11.34095 5.49172,-0.0223 7.7747,0.31147 9.84167,1.43832 8.57363,4.67415 8.61694,11.89741 0.11545,19.24938 -2.89333,2.50212 -5.71369,3.88133 -12.41199,6.06967 -9.57069,3.12673 -13.70343,3.82022 -17.65781,2.96302 z"
           id="path1630" /><path
           style="fill:#ffffff;fill-opacity:1;stroke-width:0.794488"
           d="m -175.73135,240.87324 c -11.26291,-2.33177 -24.92934,-13.11925 -26.16668,-20.65445 -0.75662,-4.60764 1.09894,-9.79249 4.26914,-11.92889 3.9274,-2.64667 12.09484,-2.53517 17.97243,0.24529 9.16879,4.33756 17.03778,14.20277 17.03117,21.35175 -0.007,6.96585 -6.44714,12.36481 -13.10607,10.98623 z"
           id="path1628" /><path
           style="fill:#ffffff;fill-opacity:1;stroke-width:0.794488"
           d="m -276.71947,272.45087 c -2.18011,-0.88091 -2.55538,-1.99471 -3.17493,-9.42333 -0.98599,-11.8228 3.78933,-26.79038 9.83607,-30.82993 5.56654,-3.71873 13.50666,-3.00389 18.14406,1.63354 4.96225,4.96225 4.3789,12.4973 -1.79399,23.17261 -7.45777,12.89737 -15.67308,18.41219 -23.01121,15.44711 z"
           id="path1626" /><path
           style="fill:#ffffff;fill-opacity:1;stroke-width:0.794488"
           d="m -153.30902,280.94246 c -2.00019,-1.42209 -4.38885,-3.54178 -5.30812,-4.71047 -4.37824,-5.56601 -7.88476,-17.65822 -7.94991,-27.41496 -0.033,-4.96513 1.50918,-6.38872 7.61807,-7.03161 4.81876,-0.50716 8.931,1.6421 12.7685,6.6734 3.45274,4.52684 4.96599,10.09653 5.1168,18.83302 0.0981,5.67483 -0.21327,7.93343 -1.49076,10.82167 -1.75487,3.96715 -1.98483,4.1912 -5.05212,4.92223 -1.55832,0.37139 -2.95909,-0.14276 -5.70246,-2.09328 z"
           id="path1624" /><path
           style="fill:#ffffff;fill-opacity:1;stroke-width:0.794488"
           d="m -219.12475,344.7148 c -14.41341,-2.23708 -24.45382,-6.03654 -35.30743,-13.36093 -6.46451,-4.36246 -8.57794,-6.31869 -11.64149,-10.77577 -7.7048,-11.2094 -10.75201,-29.27259 -6.32978,-37.52181 0.73341,-1.36811 4.31808,-4.72822 7.96584,-7.46689 3.64782,-2.73865 7.84396,-6.62455 9.32478,-8.63532 4.20292,-5.70698 9.62835,-16.69304 11.06161,-22.39888 0.71678,-2.85355 1.54493,-5.538 1.84031,-5.96541 0.29535,-0.42741 5.89982,-2.50438 12.45434,-4.61548 6.55453,-2.11108 13.96286,-4.86796 16.46296,-6.12635 2.50013,-1.25842 5.02409,-2.288 5.60882,-2.288 0.58473,0 4.66649,2.9839 9.07059,6.63092 6.74588,5.58619 20.04819,13.99868 25.04398,15.83802 0.75169,0.27673 1.54457,1.3229 1.76196,2.32477 4.33393,19.97376 6.93306,26.71645 12.64603,32.80668 5.352,5.70541 5.95986,8.35737 3.75754,16.39339 -3.57624,13.04947 -9.41573,22.9442 -19.43939,32.9392 -4.89698,4.88298 -7.96755,7.17706 -12.76073,9.53389 -6.28879,3.09217 -6.35022,3.10411 -16.68425,3.24218 -5.70471,0.0762 -12.38079,-0.17305 -14.83569,-0.55421 z"
           id="path1622" /></g><g
         id="g1637"
         transform="translate(55.480328,12.347066)"><path
           style="fill:#ffffff;fill-opacity:1;stroke-width:0.794488"
           d="m -366.00325,347.76738 c -1.52497,-0.43722 -6.35148,-2.4865 -10.72559,-4.55401 -8.14102,-3.848 -12.07798,-7.37417 -14.53349,-13.01699 -3.38775,-7.78504 2.66945,-13.60877 13.93168,-13.3947 9.70683,0.18447 18.39838,3.88281 24.1893,10.29267 5.74448,6.35843 6.84223,11.27746 3.5999,16.13099 -3.26195,4.88285 -9.3827,6.57163 -16.4618,4.54204 z"
           id="path1620" /><path
           style="fill:#ffffff;fill-opacity:1;stroke-width:0.794488"
           d="m -430.79188,351.07312 c -6.55077,-1.99908 -9.37681,-9.90968 -5.94406,-16.6384 4.3456,-8.51808 14.46475,-15.17043 23.97599,-15.76182 6.17648,-0.38406 10.01106,0.67678 12.66751,3.50443 1.61658,1.72077 1.90442,2.82803 1.90442,7.32595 0,4.30094 -0.35426,5.7955 -1.88125,7.93644 -3.04942,4.27552 -9.19257,8.59485 -15.906,11.18384 -7.25657,2.79841 -11.41861,3.48651 -14.81661,2.44956 z"
           id="path1618" /><path
           style="fill:#ffffff;fill-opacity:1;stroke-width:0.794488"
           d="m -460.57178,389.37099 c -2.93712,-2.37835 -4.01174,-9.59245 -2.62502,-17.62226 1.33351,-7.72168 3.71801,-12.78133 7.93559,-16.83851 5.12711,-4.93206 9.8611,-5.81518 16.07041,-2.9979 l 3.48859,1.58284 -0.48832,4.55701 c -1.54106,14.3817 -8.19425,26.97593 -16.48503,31.20558 -3.78924,1.93312 -5.61638,1.95931 -7.89622,0.11322 z"
           id="path1616" /><path
           style="fill:#ffffff;fill-opacity:1;stroke-width:0.794488"
           d="m -334.23173,393.17734 c -4.12483,-0.71298 -6.02767,-1.99531 -9.52363,-6.41805 -3.43594,-4.3468 -7.04187,-11.42536 -9.17738,-18.01559 -3.54784,-10.94867 1.6834,-19.47057 11.95213,-19.47057 6.58639,0 10.69667,2.78952 13.44381,9.12393 3.10692,7.16394 4.18958,16.39488 2.89288,24.66523 -1.51641,9.6718 -3.01367,11.25141 -9.58781,10.11505 z"
           id="path1614" /><path
           style="fill:#ffffff;fill-opacity:1;stroke-width:0.794488"
           d="m -412.09158,458.29954 c -7.13288,-1.2289 -14.79857,-5.502 -20.88189,-11.64029 -6.64525,-6.70526 -7.5911,-8.07473 -12.80424,-18.53956 -3.11513,-6.25321 -4.63396,-10.56264 -5.99115,-16.99881 -2.34906,-11.13977 -1.92332,-12.71544 5.4357,-20.11835 6.12345,-6.16002 9.67489,-12.69632 13.10569,-24.12042 2.14398,-7.13907 2.75444,-8.05377 6.04064,-9.05071 5.19291,-1.57542 20.11606,-9.33426 25.70574,-13.36495 6.76416,-4.87763 9.35003,-5.50039 12.52117,-3.01553 2.34309,1.83601 12.49571,6.89263 20.96244,10.44059 7.30387,3.06067 9.13662,4.71663 9.13662,8.25531 0,4.6474 2.39183,11.92124 6.81838,20.73559 3.84662,7.65951 5.10404,9.37747 10.1765,13.90354 7.16425,6.39253 8.42875,8.75536 8.42875,15.74981 0,10.44655 -4.65324,22.38309 -11.87583,30.46395 -3.20159,3.58208 -5.82167,5.42224 -12.80961,8.99666 -12.76324,6.52856 -20.84501,8.4544 -36.88739,8.79004 -6.99149,0.14624 -14.67817,-0.0727 -17.08152,-0.48687 z"
           id="path293" /></g></g></g></svg>
